<svg xmlns="http://www.w3.org/2000/svg" viewBox="0 0 700 450" fill="none">
  <defs>
    <linearGradient id="bg" x1="0" y1="0" x2="700" y2="450" gradientUnits="userSpaceOnUse"><stop stop-color="#F6F4EE"/><stop offset="1" stop-color="#DDE2D7"/></linearGradient>
    <linearGradient id="panel" x1="0" y1="0" x2="1" y2="1"><stop stop-color="#FFFFFF"/><stop offset="1" stop-color="#F0F2EB"/></linearGradient>
  </defs>
  <rect width="700" height="450" rx="24" fill="url(#bg)"/>
  <rect x="30" y="28" width="640" height="394" rx="16" fill="url(#panel)" stroke="#D4D8CF"/>
  <path d="M30 84h640" stroke="#D4D8CF"/>
  <circle cx="57" cy="56" r="5" fill="#A3A98C"/><circle cx="76" cy="56" r="5" fill="#C6C9BD"/><circle cx="95" cy="56" r="5" fill="#C6C9BD"/>
  <text x="123" y="61" fill="#59604F" font-family="Arial,sans-serif" font-size="13" font-weight="700" letter-spacing="2">PYTHON / DATA WORKFLOW</text>
  <rect x="61" y="111" width="126" height="45" rx="9" fill="#202820"/><text x="84" y="139" fill="#F4F3ED" font-family="Arial,sans-serif" font-size="14" font-weight="700">01  LOAD CSV</text>
  <rect x="222" y="111" width="132" height="45" rx="9" fill="#E9ECE4" stroke="#C9CEC3"/><text x="243" y="139" fill="#394135" font-family="Arial,sans-serif" font-size="14" font-weight="700">02  CLEAN</text>
  <rect x="389" y="111" width="132" height="45" rx="9" fill="#E9ECE4" stroke="#C9CEC3"/><text x="411" y="139" fill="#394135" font-family="Arial,sans-serif" font-size="14" font-weight="700">03  FILTER</text>
  <rect x="556" y="111" width="83" height="45" rx="9" fill="#DCE4C7"/><text x="570" y="139" fill="#37422B" font-family="Arial,sans-serif" font-size="13" font-weight="700">SQLITE</text>
  <path d="M187 134h27m140 0h27m132 0h27" stroke="#82906B" stroke-width="2" stroke-linecap="round"/><path d="m210 129 6 5-6 5m167-10 6 5-6 5m159-10 6 5-6 5" stroke="#82906B" stroke-width="2" stroke-linecap="round" stroke-linejoin="round"/>
  <rect x="61" y="187" width="578" height="195" rx="12" fill="#F9FAF7" stroke="#E0E3DC"/>
  <text x="83" y="216" fill="#72796A" font-family="Arial,sans-serif" font-size="11" font-weight="700" letter-spacing="1.5">MONTHLY RECORDS</text>
  <path d="M96 343V244m82 99V274m82 69v-42m82 42v-82m82 82v-55m82 55v-91" stroke="#87966E" stroke-width="24" stroke-linecap="round"/>
  <path d="M81 343h529" stroke="#CFD4C9"/>
  <path d="m96 263 82 30 82-18 82-41 82 19 82-39" stroke="#48573D" stroke-width="3" stroke-linecap="round" stroke-linejoin="round"/>
  <circle cx="96" cy="263" r="5" fill="#48573D"/><circle cx="178" cy="293" r="5" fill="#48573D"/><circle cx="260" cy="275" r="5" fill="#48573D"/><circle cx="342" cy="234" r="5" fill="#48573D"/><circle cx="424" cy="253" r="5" fill="#48573D"/><circle cx="506" cy="214" r="5" fill="#48573D"/>
  <text x="84" y="367" fill="#8A9083" font-family="Arial,sans-serif" font-size="10">JAN</text><text x="165" y="367" fill="#8A9083" font-family="Arial,sans-serif" font-size="10">FEB</text><text x="247" y="367" fill="#8A9083" font-family="Arial,sans-serif" font-size="10">MAR</text><text x="329" y="367" fill="#8A9083" font-family="Arial,sans-serif" font-size="10">APR</text><text x="411" y="367" fill="#8A9083" font-family="Arial,sans-serif" font-size="10">MAY</text><text x="493" y="367" fill="#8A9083" font-family="Arial,sans-serif" font-size="10">JUN</text>
</svg>
